<svg width="24" height="24" viewBox="0 0 24 24" fill="none" xmlns="http://www.w3.org/2000/svg">
<path d="M12.0001 8C12.7334 8 13.3334 8.6 13.3334 9.33333C13.3334 10.0667 12.7334 10.6667 12.0001 10.6667C11.2667 10.6667 10.6667 10.0667 10.6667 9.33333C10.6667 8.6 11.2667 8 12.0001 8ZM12.0001 14.6667C13.8001 14.6667 15.8667 15.5267 16.0001 16H8.00008C8.15341 15.52 10.2067 14.6667 12.0001 14.6667ZM12.0001 6.66667C10.5267 6.66667 9.33341 7.86 9.33341 9.33333C9.33341 10.8067 10.5267 12 12.0001 12C13.4734 12 14.6667 10.8067 14.6667 9.33333C14.6667 7.86 13.4734 6.66667 12.0001 6.66667ZM12.0001 13.3333C10.2201 13.3333 6.66675 14.2267 6.66675 16V17.3333H17.3334V16C17.3334 14.2267 13.7801 13.3333 12.0001 13.3333Z" fill="#23263B"/>
</svg>
