<svg width="24" height="25" viewBox="0 0 24 25" fill="none" xmlns="http://www.w3.org/2000/svg">
<g clip-path="url(#clip0_1828_2598)">
<path d="M12 4.608C13.375 4.608 14.5 5.733 14.5 7.108C14.5 8.483 13.375 9.608 12 9.608C10.625 9.608 9.5 8.483 9.5 7.108C9.5 5.733 10.625 4.608 12 4.608ZM12 17.108C15.375 17.108 19.25 18.7205 19.5 19.608H4.5C4.7875 18.708 8.6375 17.108 12 17.108ZM12 2.108C9.2375 2.108 7 4.3455 7 7.108C7 9.8705 9.2375 12.108 12 12.108C14.7625 12.108 17 9.8705 17 7.108C17 4.3455 14.7625 2.108 12 2.108ZM12 14.608C8.6625 14.608 2 16.283 2 19.608V22.108H22V19.608C22 16.283 15.3375 14.608 12 14.608Z" fill="#23263B"/>
</g>
<defs>
<clipPath id="clip0_1828_2598">
<rect width="24" height="24" fill="white" transform="translate(0 0.108002)"/>
</clipPath>
</defs>
</svg>
