<svg width="24" height="25" viewBox="0 0 24 25" fill="none" xmlns="http://www.w3.org/2000/svg">
<g clip-path="url(#clip0_1828_2631)">
<path fill-rule="evenodd" clip-rule="evenodd" d="M15.9 16.2168H8.1C7.8 16.2168 7.5 15.9168 7.5 15.6168V9.9168C7.5 9.6168 7.8 9.3168 8.1 9.3168H9.5L9.8 8.7168C9.8 8.8168 10 8.2168 10.3 8.2168H13.7C14 8.2168 14.3 8.8168 14.3 8.8168L14.6 9.4168H16C16.3 9.4168 16.6 9.7168 16.6 10.0168V15.7168C16.5 15.9168 16.2 16.2168 15.9 16.2168ZM15.9 10.2168C15.9 10.0168 15.8 9.9168 15.6 9.9168H14.2C14.2 9.9168 14.2 9.9168 14.2 9.8168L13.8 9.1168C13.8 9.1168 13.6 8.7168 13.4 8.7168H10.7C10.5 8.7168 10.2 9.1168 10.2 9.1168L9.8 9.8168C9.8 9.8168 9.8 9.8168 9.8 9.9168H8.3C8.2 9.9168 8.1 10.0168 8.1 10.2168V15.3168C8.1 15.5168 8.2 15.6168 8.4 15.6168H15.7C15.9 15.6168 16 15.5168 16 15.3168V10.2168H15.9ZM12 15.1168C10.8 15.1168 9.8 14.1168 9.8 12.8168C9.8 11.5168 10.8 10.5168 12 10.5168C13.2 10.5168 14.2 11.5168 14.2 12.8168C14.2 14.0168 13.2 15.1168 12 15.1168ZM12 11.1168C11.1 11.1168 10.3 11.9168 10.3 12.8168C10.3 13.7168 11.1 14.5168 12 14.5168C12.9 14.5168 13.7 13.7168 13.7 12.8168C13.7 11.8168 12.9 11.1168 12 11.1168Z" fill="#23263B"/>
<path d="M18.5 15.9168H20V18.1168C20 19.3168 19 20.3168 17.8 20.3168H14.6V18.9168H17.8C18.2 18.9168 18.5 18.6168 18.5 18.2168V15.9168Z" fill="#23263B"/>
<path d="M20 6.4168V8.6168H18.5V6.4168C18.5 6.0168 18.2 5.7168 17.8 5.7168H14.6V4.2168H17.8C19 4.2168 20 5.2168 20 6.4168Z" fill="#23263B"/>
<path d="M6.2 18.8168H9.4V20.2168H6.2C5 20.2168 4 19.2168 4 18.0168V15.8168H5.5V18.0168C5.5 18.4168 5.8 18.8168 6.2 18.8168Z" fill="#23263B"/>
<path d="M6.2 4.2168H9.4V5.6168H6.2C5.8 5.6168 5.5 5.9168 5.5 6.3168V8.5168H4V6.4168C4 5.2168 5 4.2168 6.2 4.2168Z" fill="#23263B"/>
</g>
<defs>
<clipPath id="clip0_1828_2631">
<rect width="16" height="16" fill="white" transform="translate(4 4.2168)"/>
</clipPath>
</defs>
</svg>
