<svg width="24" height="25" viewBox="0 0 24 25" fill="none" xmlns="http://www.w3.org/2000/svg">
<g clip-path="url(#clip0_1820_2602)">
<path d="M18 6.108H16C16 3.898 14.21 2.108 12 2.108C9.79 2.108 8 3.898 8 6.108H6C4.9 6.108 4 7.008 4 8.108V20.108C4 21.208 4.9 22.108 6 22.108H18C19.1 22.108 20 21.208 20 20.108V8.108C20 7.008 19.1 6.108 18 6.108ZM12 4.108C13.1 4.108 14 5.008 14 6.108H10C10 5.008 10.9 4.108 12 4.108ZM18 20.108H6V8.108H8V10.108C8 10.658 8.45 11.108 9 11.108C9.55 11.108 10 10.658 10 10.108V8.108H14V10.108C14 10.658 14.45 11.108 15 11.108C15.55 11.108 16 10.658 16 10.108V8.108H18V20.108Z" fill="#23263B"/>
</g>
<defs>
<clipPath id="clip0_1820_2602">
<rect width="24" height="24" fill="white" transform="translate(0 0.108002)"/>
</clipPath>
</defs>
</svg>
