<svg width="12" height="12" viewBox="0 0 12 12" fill="none" xmlns="http://www.w3.org/2000/svg">
<path fill-rule="evenodd" clip-rule="evenodd" d="M10.2857 11H7.42857C7 11 6.71429 10.7143 6.71429 10.2857V7.42857C6.71429 7 7 6.71429 7.42857 6.71429H10.2857C10.7143 6.71429 11 7 11 7.42857V10.2857C11 10.7143 10.7143 11 10.2857 11ZM10.2857 7.78571C10.2857 7.57143 10.1429 7.42857 9.92857 7.42857H7.78571C7.57143 7.42857 7.42857 7.57143 7.42857 7.78571V9.92857C7.42857 10.1429 7.57143 10.2857 7.78571 10.2857H9.92857C10.1429 10.2857 10.2857 10.1429 10.2857 9.92857V7.78571ZM10.2857 5.28571H7.42857C7 5.28571 6.71429 5 6.71429 4.57143V1.71429C6.71429 1.28571 7 1 7.42857 1H10.2857C10.7143 1 11 1.28571 11 1.71429V4.57143C11 5 10.7143 5.28571 10.2857 5.28571ZM10.2857 2.07143C10.2857 1.85714 10.1429 1.71429 9.92857 1.71429H7.78571C7.57143 1.71429 7.42857 1.85714 7.42857 2.07143V4.21429C7.42857 4.42857 7.57143 4.57143 7.78571 4.57143H9.92857C10.1429 4.57143 10.2857 4.42857 10.2857 4.21429V2.07143ZM4.57143 11H1.71429C1.28571 11 1 10.7143 1 10.2857V7.42857C1 7 1.28571 6.71429 1.71429 6.71429H4.57143C5 6.71429 5.28571 7 5.28571 7.42857V10.2857C5.28571 10.7143 5 11 4.57143 11ZM4.57143 7.78571C4.57143 7.57143 4.42857 7.42857 4.21429 7.42857H2.07143C1.85714 7.42857 1.71429 7.57143 1.71429 7.78571V9.92857C1.71429 10.1429 1.85714 10.2857 2.07143 10.2857H4.21429C4.42857 10.2857 4.57143 10.1429 4.57143 9.92857V7.78571ZM4.57143 5.28571H1.71429C1.28571 5.28571 1 5 1 4.57143V1.71429C1 1.28571 1.28571 1 1.71429 1H4.57143C5 1 5.28571 1.28571 5.28571 1.71429V4.57143C5.28571 5 5 5.28571 4.57143 5.28571ZM4.57143 2.07143C4.57143 1.85714 4.42857 1.71429 4.21429 1.71429H2.07143C1.85714 1.71429 1.71429 1.85714 1.71429 2.07143V4.21429C1.71429 4.42857 1.85714 4.57143 2.07143 4.57143H4.21429C4.42857 4.57143 4.57143 4.42857 4.57143 4.21429V2.07143Z" fill="#23263B"/>
</svg>
