<svg width="24" height="25" viewBox="0 0 24 25" fill="none" xmlns="http://www.w3.org/2000/svg">
<g clip-path="url(#clip0_1828_2594)">
<path d="M16.5001 3.108C14.7601 3.108 13.0901 3.918 12.0001 5.198C10.9101 3.918 9.24006 3.108 7.50006 3.108C4.42006 3.108 2.00006 5.528 2.00006 8.608C2.00006 12.388 5.40006 15.468 10.5501 20.148L12.0001 21.458L13.4501 20.138C18.6001 15.468 22.0001 12.388 22.0001 8.608C22.0001 5.528 19.5801 3.108 16.5001 3.108ZM12.1001 18.658L12.0001 18.758L11.9001 18.658C7.14006 14.348 4.00006 11.498 4.00006 8.608C4.00006 6.608 5.50006 5.108 7.50006 5.108C9.04006 5.108 10.5401 6.098 11.0701 7.468H12.9401C13.4601 6.098 14.9601 5.108 16.5001 5.108C18.5001 5.108 20.0001 6.608 20.0001 8.608C20.0001 11.498 16.8601 14.348 12.1001 18.658Z" fill="#23263B"/>
</g>
<defs>
<clipPath id="clip0_1828_2594">
<rect width="24" height="24" fill="white" transform="translate(0 0.108002)"/>
</clipPath>
</defs>
</svg>
