<svg width="24" height="24" viewBox="0 0 24 24" fill="none" xmlns="http://www.w3.org/2000/svg">
<path d="M11.3333 16H12.6666V14.6667H11.3333V16ZM11.9999 5.33334C8.31992 5.33334 5.33325 8.32 5.33325 12C5.33325 15.68 8.31992 18.6667 11.9999 18.6667C15.6799 18.6667 18.6666 15.68 18.6666 12C18.6666 8.32 15.6799 5.33334 11.9999 5.33334ZM11.9999 17.3333C9.05992 17.3333 6.66659 14.94 6.66659 12C6.66659 9.06 9.05992 6.66667 11.9999 6.66667C14.9399 6.66667 17.3333 9.06 17.3333 12C17.3333 14.94 14.9399 17.3333 11.9999 17.3333ZM11.9999 8C10.5266 8 9.33325 9.19334 9.33325 10.6667H10.6666C10.6666 9.93334 11.2666 9.33334 11.9999 9.33334C12.7333 9.33334 13.3333 9.93334 13.3333 10.6667C13.3333 12 11.3333 11.8333 11.3333 14H12.6666C12.6666 12.5 14.6666 12.3333 14.6666 10.6667C14.6666 9.19334 13.4733 8 11.9999 8Z" fill="#23263B"/>
</svg>
