<svg width="24" height="25" viewBox="0 0 24 25" fill="none" xmlns="http://www.w3.org/2000/svg">
<g clip-path="url(#clip0_1820_2588)">
<path d="M12.0001 4.108C13.9301 4.108 17.0001 5.508 17.0001 9.258C17.0001 11.418 15.2801 13.928 12.0001 16.578C8.72006 13.928 7.00006 11.408 7.00006 9.258C7.00006 5.508 10.0701 4.108 12.0001 4.108ZM12.0001 2.108C8.73006 2.108 5.00006 4.568 5.00006 9.258C5.00006 12.378 7.33006 15.668 12.0001 19.108C16.6701 15.668 19.0001 12.378 19.0001 9.258C19.0001 4.568 15.2701 2.108 12.0001 2.108Z" fill="#23263B"/>
<path d="M12.0001 7.108C10.9001 7.108 10.0001 8.008 10.0001 9.108C10.0001 10.208 10.9001 11.108 12.0001 11.108C12.5305 11.108 13.0392 10.8973 13.4143 10.5222C13.7893 10.1471 14.0001 9.63843 14.0001 9.108C14.0001 8.57757 13.7893 8.06886 13.4143 7.69379C13.0392 7.31872 12.5305 7.108 12.0001 7.108V7.108ZM5.00006 20.108H19.0001V22.108H5.00006V20.108Z" fill="#23263B"/>
</g>
<defs>
<clipPath id="clip0_1820_2588">
<rect width="24" height="24" fill="white" transform="translate(0 0.108002)"/>
</clipPath>
</defs>
</svg>
