<svg width="24" height="25" viewBox="0 0 24 25" fill="none" xmlns="http://www.w3.org/2000/svg">
<path d="M12 13.4273C13.1857 13.4273 14.1429 12.5105 14.1429 11.3747V7.26943C14.1429 6.13364 13.1857 5.2168 12 5.2168C10.8143 5.2168 9.85714 6.13364 9.85714 7.26943V11.3747C9.85714 12.5105 10.8143 13.4273 12 13.4273ZM11.2857 7.26943C11.2857 6.89311 11.6071 6.58522 12 6.58522C12.3929 6.58522 12.7143 6.89311 12.7143 7.26943V11.3747C12.7143 11.751 12.3929 12.0589 12 12.0589C11.6071 12.0589 11.2857 11.751 11.2857 11.3747V7.26943ZM15.5714 11.3747C15.5714 13.2631 13.9714 14.7957 12 14.7957C10.0286 14.7957 8.42857 13.2631 8.42857 11.3747H7C7 13.79 8.86429 15.7742 11.2857 16.1094V18.2168H12.7143V16.1094C15.1357 15.7742 17 13.79 17 11.3747H15.5714Z" fill="#23263B"/>
</svg>
