<svg width="24" height="24" viewBox="0 0 24 24" fill="none" xmlns="http://www.w3.org/2000/svg">
<path d="M7.33317 8.5H6.1665V16.6667C6.1665 17.3083 6.6915 17.8333 7.33317 17.8333H15.4998V16.6667H7.33317V8.5ZM16.6665 6.16666H9.6665C9.02484 6.16666 8.49984 6.69166 8.49984 7.33333V14.3333C8.49984 14.975 9.02484 15.5 9.6665 15.5H16.6665C17.3082 15.5 17.8332 14.975 17.8332 14.3333V7.33333C17.8332 6.69166 17.3082 6.16666 16.6665 6.16666ZM16.6665 14.3333H9.6665V7.33333H16.6665V14.3333ZM10.8332 10.25H15.4998V11.4167H10.8332V10.25ZM10.8332 12H13.1665V13.1667H10.8332V12ZM10.8332 8.5H15.4998V9.66666H10.8332V8.5Z" fill="#23263B"/>
</svg>
