<svg width="24" height="25" viewBox="0 0 24 25" fill="none" xmlns="http://www.w3.org/2000/svg">
<g clip-path="url(#clip0_1828_2622)">
<path d="M19.8 19.0168L15.6 14.8168C16.6 13.6168 17.1 12.2168 17.1 10.7168C17.1 7.1168 14.2 4.2168 10.6 4.2168C6.9 4.2168 4 7.1168 4 10.7168C4 14.3168 6.9 17.2168 10.5 17.2168C12 17.2168 13.4 16.7168 14.6 15.7168L18.8 19.9168C18.9 20.0168 19.1 20.1168 19.3 20.1168C19.5 20.1168 19.7 20.0168 19.8 19.9168C19.9 19.8168 20 19.6168 20 19.4168C20 19.3168 19.9 19.1168 19.8 19.0168ZM10.5 15.8168C7.7 15.8168 5.4 13.5168 5.4 10.7168C5.4 7.9168 7.7 5.6168 10.5 5.6168C13.3 5.6168 15.6 7.9168 15.6 10.7168C15.6 13.6168 13.4 15.8168 10.5 15.8168Z" fill="#23263B"/>
</g>
<defs>
<clipPath id="clip0_1828_2622">
<rect width="16" height="16" fill="white" transform="translate(4 4.2168)"/>
</clipPath>
</defs>
</svg>
