<svg width="12" height="12" viewBox="0 0 12 12" fill="none" xmlns="http://www.w3.org/2000/svg">
<path d="M9.375 1.5H8.25C8.25 1.5 7.24312 1.5 6 1.5C4.75688 1.5 3.75 1.5 3.75 1.5H2.625C2.00625 1.5 1.5 2.00625 1.5 2.625V9.375C1.5 9.99375 2.00625 10.5 2.625 10.5H9.375C9.99375 10.5 10.5 9.99375 10.5 9.375V2.625C10.5 2.00625 9.99375 1.5 9.375 1.5ZM9.375 9.375H2.625V2.625H3.75C3.75 2.625 4.00649 2.625 4.31586 2.625C4.62524 2.625 4.875 2.625 4.875 2.625H7.125C7.125 2.625 7.35172 2.625 7.66109 2.625C7.97047 2.625 8.19439 2.625 8.25 2.625H9.375V9.375Z" fill="#23263B"/>
</svg>
