<svg width="8" height="8" viewBox="0 0 8 8" fill="none" xmlns="http://www.w3.org/2000/svg">
<path d="M4 0.416687C4.09515 0.416687 4.18206 0.470705 4.22417 0.556031L5.19606 2.52497L7.36949 2.84265C7.46363 2.85641 7.5418 2.92241 7.57114 3.01291C7.60048 3.10341 7.57592 3.20273 7.50776 3.26911L5.93529 4.8007L6.3064 6.96443C6.32248 7.05822 6.28392 7.15302 6.20693 7.20895C6.12994 7.26488 6.02786 7.27225 5.94363 7.22796L4 6.20582L2.05636 7.22796C1.97213 7.27225 1.87006 7.26488 1.79306 7.20895C1.71607 7.15302 1.67751 7.05822 1.69359 6.96443L2.0647 4.8007L0.492231 3.26911C0.424076 3.20273 0.399508 3.10341 0.428852 3.01291C0.458197 2.92241 0.536367 2.85641 0.630507 2.84265L2.80393 2.52497L3.77582 0.556031C3.81794 0.470705 3.90484 0.416687 4 0.416687Z" fill="#23263B"/>
</svg>
