<svg width="24" height="25" viewBox="0 0 24 25" fill="none" xmlns="http://www.w3.org/2000/svg">
<g clip-path="url(#clip0_1820_2583)">
<path d="M18.2222 13.3353V16.7898H16.4444V13.3353H18.2222ZM7.55556 13.3353V16.7898H6.66667C6.17778 16.7898 5.77778 16.4012 5.77778 15.9262V13.3353H7.55556ZM12 2.108C7.58222 2.108 4 5.58846 4 9.88073V15.9262C4 17.3598 5.19111 18.5171 6.66667 18.5171H9.33333V11.608H5.77778V9.88073C5.77778 6.53846 8.56 3.83527 12 3.83527C15.44 3.83527 18.2222 6.53846 18.2222 9.88073V11.608H14.6667V18.5171H18.2222V19.3807H12V21.108H17.3333C18.8089 21.108 20 19.9507 20 18.5171V9.88073C20 5.58846 16.4178 2.108 12 2.108Z" fill="#23263B"/>
</g>
<defs>
<clipPath id="clip0_1820_2583">
<rect width="24" height="24" fill="white" transform="translate(0 0.108002)"/>
</clipPath>
</defs>
</svg>
