<svg width="34" height="31" viewBox="0 0 34 31" fill="none" xmlns="http://www.w3.org/2000/svg">
<path fill-rule="evenodd" clip-rule="evenodd" d="M3.00488 8.5129C0.86439 9.47588 -0.0883503 11.9877 0.876877 14.1232L3.78606 20.5596L4.60125 19.5803C5.13032 20.0026 5.6972 20.3495 6.30186 20.6209C6.92164 20.8773 7.50362 21.0055 8.04782 21.0055C8.63737 21.0055 9.06063 20.915 9.31761 20.734C9.58971 20.5531 9.72576 20.2967 9.72576 19.9649C9.72576 19.7839 9.68041 19.6331 9.58971 19.5124C9.49901 19.3918 9.36296 19.2787 9.18156 19.1731C9.01528 19.0675 8.81121 18.9695 8.56934 18.879C8.32748 18.7735 8.04782 18.6603 7.73037 18.5397L5.89371 17.7706C5.50068 17.6197 5.12277 17.4237 4.75997 17.1824C4.39717 16.926 4.07972 16.6319 3.80763 16.3001C3.53553 15.9533 3.31634 15.5611 3.15006 15.1238C2.99889 14.6864 2.92331 14.2038 2.92331 13.676C2.92331 13.0426 3.05936 12.4544 3.33145 11.9115C3.60355 11.3535 3.98147 10.8709 4.4652 10.4637C4.94893 10.0414 5.52336 9.70959 6.18848 9.46829C6.86873 9.22699 7.60944 9.10634 8.41062 9.10634C9.25714 9.10634 10.1112 9.2647 10.9729 9.5814C11.8496 9.89811 12.6281 10.3958 13.3084 11.0745L11.3583 13.5176C10.8595 13.1708 10.3758 12.9068 9.90716 12.7259C9.45366 12.5449 8.95481 12.4544 8.41062 12.4544C7.92689 12.4544 7.54897 12.5373 7.27688 12.7032C7.00478 12.8691 6.86873 13.118 6.86873 13.4498C6.86873 13.7966 7.05769 14.0681 7.4356 14.2641C7.82863 14.4451 8.36527 14.6638 9.04551 14.9202L10.8368 15.6215C11.7589 15.9834 12.4694 16.4886 12.9683 17.1371C13.4671 17.7856 13.7165 18.6226 13.7165 19.6482C13.7165 20.2665 13.588 20.8622 13.3311 21.4353C13.0741 22.0084 12.6962 22.5136 12.1973 22.951C11.7136 23.3733 11.1165 23.7126 10.406 23.969C9.69553 24.2254 8.87923 24.3535 7.95712 24.3535C7.10105 24.3535 6.21975 24.2151 5.31323 23.9383L7.2851 28.301C8.25033 30.4365 10.768 31.387 12.9085 30.424L27.0053 24.0821H25.5177L24.384 18.2456C24.263 17.6725 24.1572 17.0919 24.0665 16.5037C23.9909 15.9156 23.9154 15.35 23.8398 14.8071H23.7491C23.6735 15.35 23.5904 15.9156 23.4997 16.5037C23.4241 17.0919 23.3258 17.6725 23.2049 18.2456L22.1165 24.0821H17.2641L14.6791 9.3778H18.6699L19.4862 15.8024C19.5618 16.5716 19.6449 17.3407 19.7356 18.1099C19.8263 18.879 19.9095 19.6482 19.9851 20.4173H20.0758L20.4839 18.1099L20.8921 15.8024L22.2979 9.3778H25.5631L26.9689 15.8024C27.105 16.5414 27.241 17.303 27.3771 18.0873C27.5131 18.8564 27.6492 19.6331 27.7852 20.4173H27.8759C27.9515 19.6331 28.0346 18.8564 28.1253 18.0873C28.216 17.3181 28.2992 16.5565 28.3747 15.8024L29.191 9.3778H29.824L26.7149 2.49904C25.7497 0.363541 23.232 -0.586978 21.0915 0.375998L3.00488 8.5129ZM32.0789 14.3665L30.7407 22.4016L30.9951 22.2871C33.1356 21.3241 34.0884 18.8123 33.1231 16.6768L32.0789 14.3665Z" fill="#5468FF"/>
</svg>
